<svg id="Glyph" xmlns="http://www.w3.org/2000/svg" xmlns:xlink="http://www.w3.org/1999/xlink" width="48" height="32" viewBox="0 0 48 32">
  <defs>
    <clipPath id="clip-path">
      <rect id="Rectangle_210" data-name="Rectangle 210" width="26" height="26" transform="translate(11 3)" fill="#fff" stroke="#707070" stroke-width="1"/>
    </clipPath>
  </defs>
  <rect id="Frame" width="48" height="32" fill="none"/>
  <g id="Mask_Group_5" data-name="Mask Group 5" clip-path="url(#clip-path)">
    <g id="house" transform="translate(11 3)">
      <rect id="Rectangle_3709" data-name="Rectangle 3709" width="26" height="26" fill="none"/>
      <path id="Path_14882" data-name="Path 14882" d="M21.125,22.75H16.25a1.627,1.627,0,0,1-1.625-1.625V16.25h-3.25v4.875A1.627,1.627,0,0,1,9.75,22.75H4.875A1.627,1.627,0,0,1,3.25,21.125V11.73s0-.009,0-.013a1.665,1.665,0,0,1,.519-1.177l.011-.011,8.125-7.384a1.625,1.625,0,0,1,2.192,0L22.22,10.53l.011.011a1.665,1.665,0,0,1,.519,1.177s0,.009,0,.013v9.395A1.627,1.627,0,0,1,21.125,22.75Zm-9.75-8.125h3.25A1.627,1.627,0,0,1,16.25,16.25v4.875h4.876V11.742a.031.031,0,0,0-.008-.018L13,4.349,4.883,11.724a.031.031,0,0,0-.008.018v9.384H9.75V16.25A1.627,1.627,0,0,1,11.375,14.625Z" fill="#999"/>
    </g>
  </g>
</svg>
