<svg xmlns="http://www.w3.org/2000/svg" xmlns:xlink="http://www.w3.org/1999/xlink" width="54" height="32" viewBox="0 0 54 32">
  <defs>
    <clipPath id="clip-path">
      <rect id="Rectangle_197" data-name="Rectangle 197" width="54" height="32" transform="translate(-11)" fill="#fff"/>
    </clipPath>
  </defs>
  <g id="Mask_Group_3" data-name="Mask Group 3" transform="translate(11)" clip-path="url(#clip-path)">
    <g id="scissors" transform="translate(1)">
      <rect id="Rectangle_3707" data-name="Rectangle 3707" width="31" height="32" fill="none"/>
      <path id="Ellipse_75" data-name="Ellipse 75" d="M3.391-.969a4.436,4.436,0,0,1,4.359,4.5,4.436,4.436,0,0,1-4.359,4.5,4.436,4.436,0,0,1-4.359-4.5A4.436,4.436,0,0,1,3.391-.969Zm0,7a2.465,2.465,0,0,0,2.422-2.5,2.465,2.465,0,0,0-2.422-2.5,2.465,2.465,0,0,0-2.422,2.5A2.465,2.465,0,0,0,3.391,6.031Z" transform="translate(3.875 5.969)" fill="#fff"/>
      <path id="Ellipse_76" data-name="Ellipse 76" d="M3.391-.969a4.436,4.436,0,0,1,4.359,4.5,4.436,4.436,0,0,1-4.359,4.5,4.436,4.436,0,0,1-4.359-4.5A4.436,4.436,0,0,1,3.391-.969Zm0,7a2.465,2.465,0,0,0,2.422-2.5,2.465,2.465,0,0,0-2.422-2.5,2.465,2.465,0,0,0-2.422,2.5A2.465,2.465,0,0,0,3.391,6.031Z" transform="translate(3.875 18.969)" fill="#fff"/>
      <path id="Line_7" data-name="Line 7" d="M0,5.556a.959.959,0,0,1-.8-.435,1.02,1.02,0,0,1,.252-1.39L5.859-.794a.95.95,0,0,1,1.347.261A1.02,1.02,0,0,1,6.953.857L.547,5.382A.943.943,0,0,1,0,5.556Z" transform="translate(10.063 15.969)" fill="#fff"/>
      <path id="Line_8" data-name="Line 8" d="M0,6.819a.959.959,0,0,1-.8-.436,1.02,1.02,0,0,1,.253-1.39l8.2-5.787A.95.95,0,0,1,9-.533,1.02,1.02,0,0,1,8.745.857L.547,6.644A.943.943,0,0,1,0,6.819Z" transform="translate(19.896 7.756)" fill="#fff"/>
      <path id="Line_9" data-name="Line 9" d="M18.03,13.769a.943.943,0,0,1-.546-.175L-.547.857A1.02,1.02,0,0,1-.8-.534.95.95,0,0,1,.547-.794L18.578,11.943a1.02,1.02,0,0,1,.252,1.39A.959.959,0,0,1,18.03,13.769Z" transform="translate(10.063 11.444)" fill="#fff"/>
    </g>
  </g>
</svg>
