<svg id="Glyph" xmlns="http://www.w3.org/2000/svg" xmlns:xlink="http://www.w3.org/1999/xlink" width="48" height="32" viewBox="0 0 48 32">
  <defs>
    <clipPath id="clip-path">
      <rect id="Rectangle_211" data-name="Rectangle 211" width="26" height="26" transform="translate(11 3)" fill="#fff"/>
    </clipPath>
  </defs>
  <rect id="Frame" width="48" height="32" fill="none"/>
  <g id="Mask_Group_2" data-name="Mask Group 2" clip-path="url(#clip-path)">
    <g id="chats-circle" transform="translate(11 3)">
      <rect id="Rectangle_3706" data-name="Rectangle 3706" width="26" height="26" fill="none"/>
      <path id="Path_14878" data-name="Path 14878" d="M9.756,18.688a8.129,8.129,0,0,1-3.836-.964l-2.2.628a1.427,1.427,0,0,1-.388.054A1.422,1.422,0,0,1,1.96,16.6l.629-2.206A8.15,8.15,0,0,1,4.769,4.128,8.135,8.135,0,0,1,15.513,4.8,8.136,8.136,0,0,1,9.756,18.688ZM6.023,16.037a.812.812,0,0,1,.415.114,6.51,6.51,0,1,0-2.275-2.275.813.813,0,0,1,.083.638l-.62,2.176,2.176-.62A.812.812,0,0,1,6.023,16.037Z" fill="#999"/>
      <path id="Path_14879" data-name="Path 14879" d="M16.25,23.566a8.128,8.128,0,0,1-7.663-5.432.812.812,0,1,1,1.533-.538,6.49,6.49,0,0,0,9.441,3.43.813.813,0,0,1,.638-.083l2.176.62-.62-2.176a.813.813,0,0,1,.083-.639,6.49,6.49,0,0,0-5.235-9.8.813.813,0,1,1,.085-1.623,8.115,8.115,0,0,1,6.723,11.945l.628,2.2a1.422,1.422,0,0,1-1.753,1.757L20.081,22.6A8.085,8.085,0,0,1,16.25,23.566Z" fill="#999"/>
    </g>
  </g>
</svg>
